<svg xmlns="http://www.w3.org/2000/svg" xmlns:xlink="http://www.w3.org/1999/xlink" width="320" zoomAndPan="magnify" viewBox="0 0 240 239.999995" height="320" preserveAspectRatio="xMidYMid meet" version="1.0"><defs><g/><clipPath id="685047450b"><path d="M 102 95 L 121 95 L 121 121 L 102 121 Z M 102 95 " clip-rule="nonzero"/></clipPath><clipPath id="edb797f5ae"><path d="M 86.96875 45.09375 L 141.089844 36.808594 L 153.003906 114.652344 L 98.886719 122.9375 Z M 86.96875 45.09375 " clip-rule="nonzero"/></clipPath><clipPath id="a34056327c"><path d="M 86.96875 45.09375 L 141.089844 36.808594 L 153.003906 114.652344 L 98.886719 122.9375 Z M 86.96875 45.09375 " clip-rule="nonzero"/></clipPath><clipPath id="83a1301b8e"><path d="M 96 40 L 130 40 L 130 116 L 96 116 Z M 96 40 " clip-rule="nonzero"/></clipPath><clipPath id="d65a8ac911"><path d="M 86.96875 45.09375 L 141.089844 36.808594 L 153.003906 114.652344 L 98.886719 122.9375 Z M 86.96875 45.09375 " clip-rule="nonzero"/></clipPath><clipPath id="cbaa720be1"><path d="M 86.96875 45.09375 L 141.089844 36.808594 L 153.003906 114.652344 L 98.886719 122.9375 Z M 86.96875 45.09375 " clip-rule="nonzero"/></clipPath><clipPath id="3d04eff58a"><path d="M 114 45 L 144 45 L 144 102 L 114 102 Z M 114 45 " clip-rule="nonzero"/></clipPath><clipPath id="baca4c6b62"><path d="M 86.96875 45.09375 L 141.089844 36.808594 L 153.003906 114.652344 L 98.886719 122.9375 Z M 86.96875 45.09375 " clip-rule="nonzero"/></clipPath><clipPath id="55be7ae6ae"><path d="M 86.96875 45.09375 L 141.089844 36.808594 L 153.003906 114.652344 L 98.886719 122.9375 Z M 86.96875 45.09375 " clip-rule="nonzero"/></clipPath></defs><g clip-path="url(#685047450b)"><g clip-path="url(#edb797f5ae)"><g clip-path="url(#a34056327c)"><path fill="#ffffff" d="M 102.460938 95.894531 C 103.964844 103.683594 108.289062 107.199219 111.953125 110.167969 C 115.339844 112.910156 119.667969 115.21875 119.515625 120.0625 C 119.949219 118.605469 119.964844 117.820312 120.066406 116.441406 C 120.710938 107.480469 106 104.511719 102.460938 95.894531 " fill-opacity="1" fill-rule="nonzero"/></g></g></g><g clip-path="url(#83a1301b8e)"><g clip-path="url(#d65a8ac911)"><g clip-path="url(#cbaa720be1)"><path fill="#ffffff" d="M 124.195312 115.535156 C 136.589844 98.820312 122.570312 84.753906 115.789062 77.101562 C 102.480469 62.074219 112.589844 44.640625 115.855469 40.671875 C 98.359375 45.921875 91.304688 73.113281 99.929688 85.859375 C 107.027344 96.34375 121.308594 101.574219 124.195312 115.535156 " fill-opacity="1" fill-rule="nonzero"/></g></g></g><g clip-path="url(#3d04eff58a)"><g clip-path="url(#baca4c6b62)"><g clip-path="url(#55be7ae6ae)"><path fill="#ffffff" d="M 133.609375 101.789062 C 144.984375 90.691406 146.957031 75.429688 137.246094 67.625 C 128.859375 60.882812 119.332031 57.570312 116.828125 45.707031 C 110.542969 58.480469 116.246094 67.429688 124.824219 75.054688 C 136.300781 85.25 134.355469 99.472656 133.609375 101.789062 " fill-opacity="1" fill-rule="nonzero"/></g></g></g><g fill="#ffffff" fill-opacity="1"><g transform="translate(26.956136, 141.892286)"><g/></g></g><g fill="#ffffff" fill-opacity="1"><g transform="translate(34.368476, 141.892286)"><g><path d="M 3.453125 0 C 3.203125 0 2.984375 -0.09375 2.796875 -0.28125 C 2.609375 -0.46875 2.515625 -0.679688 2.515625 -0.921875 L 2.515625 -25 C 2.515625 -25.28125 2.609375 -25.503906 2.796875 -25.671875 C 2.984375 -25.847656 3.203125 -25.9375 3.453125 -25.9375 L 8.75 -25.9375 C 9.019531 -25.9375 9.238281 -25.847656 9.40625 -25.671875 C 9.582031 -25.503906 9.671875 -25.28125 9.671875 -25 L 9.671875 -0.921875 C 9.671875 -0.679688 9.582031 -0.46875 9.40625 -0.28125 C 9.238281 -0.09375 9.019531 0 8.75 0 Z M 3.453125 0 "/></g></g></g><g fill="#ffffff" fill-opacity="1"><g transform="translate(46.184526, 141.892286)"><g><path d="M 12.34375 0.375 C 9.945312 0.375 7.90625 0.03125 6.21875 -0.65625 C 4.539062 -1.351562 3.269531 -2.269531 2.40625 -3.40625 C 1.539062 -4.539062 1.082031 -5.773438 1.03125 -7.109375 C 1.03125 -7.335938 1.109375 -7.523438 1.265625 -7.671875 C 1.429688 -7.816406 1.628906 -7.890625 1.859375 -7.890625 L 6.78125 -7.890625 C 7.070312 -7.890625 7.3125 -7.835938 7.5 -7.734375 C 7.6875 -7.640625 7.890625 -7.46875 8.109375 -7.21875 C 8.429688 -6.625 8.929688 -6.132812 9.609375 -5.75 C 10.285156 -5.375 11.195312 -5.1875 12.34375 -5.1875 C 13.675781 -5.1875 14.695312 -5.390625 15.40625 -5.796875 C 16.125 -6.203125 16.484375 -6.765625 16.484375 -7.484375 C 16.484375 -8.003906 16.296875 -8.429688 15.921875 -8.765625 C 15.554688 -9.097656 14.960938 -9.394531 14.140625 -9.65625 C 13.328125 -9.914062 12.15625 -10.203125 10.625 -10.515625 C 7.644531 -11.109375 5.410156 -12.007812 3.921875 -13.21875 C 2.441406 -14.4375 1.703125 -16.164062 1.703125 -18.40625 C 1.703125 -19.9375 2.128906 -21.300781 2.984375 -22.5 C 3.835938 -23.695312 5.046875 -24.628906 6.609375 -25.296875 C 8.179688 -25.960938 10.003906 -26.296875 12.078125 -26.296875 C 14.253906 -26.296875 16.132812 -25.921875 17.71875 -25.171875 C 19.3125 -24.421875 20.535156 -23.484375 21.390625 -22.359375 C 22.242188 -21.234375 22.695312 -20.128906 22.75 -19.046875 C 22.75 -18.816406 22.671875 -18.625 22.515625 -18.46875 C 22.367188 -18.3125 22.1875 -18.234375 21.96875 -18.234375 L 16.78125 -18.234375 C 16.238281 -18.234375 15.816406 -18.453125 15.515625 -18.890625 C 15.367188 -19.410156 14.988281 -19.847656 14.375 -20.203125 C 13.757812 -20.566406 12.992188 -20.75 12.078125 -20.75 C 11.035156 -20.75 10.226562 -20.5625 9.65625 -20.1875 C 9.09375 -19.820312 8.8125 -19.28125 8.8125 -18.5625 C 8.8125 -17.84375 9.179688 -17.28125 9.921875 -16.875 C 10.671875 -16.46875 12.054688 -16.054688 14.078125 -15.640625 C 16.398438 -15.210938 18.242188 -14.679688 19.609375 -14.046875 C 20.984375 -13.421875 22 -12.609375 22.65625 -11.609375 C 23.3125 -10.609375 23.640625 -9.34375 23.640625 -7.8125 C 23.640625 -6.132812 23.15625 -4.675781 22.1875 -3.4375 C 21.226562 -2.207031 19.894531 -1.265625 18.1875 -0.609375 C 16.488281 0.046875 14.539062 0.375 12.34375 0.375 Z M 12.34375 0.375 "/></g></g></g><g fill="#ffffff" fill-opacity="1"><g transform="translate(70.483387, 141.892286)"><g><path d="M 12.34375 0.375 C 9.945312 0.375 7.90625 0.03125 6.21875 -0.65625 C 4.539062 -1.351562 3.269531 -2.269531 2.40625 -3.40625 C 1.539062 -4.539062 1.082031 -5.773438 1.03125 -7.109375 C 1.03125 -7.335938 1.109375 -7.523438 1.265625 -7.671875 C 1.429688 -7.816406 1.628906 -7.890625 1.859375 -7.890625 L 6.78125 -7.890625 C 7.070312 -7.890625 7.3125 -7.835938 7.5 -7.734375 C 7.6875 -7.640625 7.890625 -7.46875 8.109375 -7.21875 C 8.429688 -6.625 8.929688 -6.132812 9.609375 -5.75 C 10.285156 -5.375 11.195312 -5.1875 12.34375 -5.1875 C 13.675781 -5.1875 14.695312 -5.390625 15.40625 -5.796875 C 16.125 -6.203125 16.484375 -6.765625 16.484375 -7.484375 C 16.484375 -8.003906 16.296875 -8.429688 15.921875 -8.765625 C 15.554688 -9.097656 14.960938 -9.394531 14.140625 -9.65625 C 13.328125 -9.914062 12.15625 -10.203125 10.625 -10.515625 C 7.644531 -11.109375 5.410156 -12.007812 3.921875 -13.21875 C 2.441406 -14.4375 1.703125 -16.164062 1.703125 -18.40625 C 1.703125 -19.9375 2.128906 -21.300781 2.984375 -22.5 C 3.835938 -23.695312 5.046875 -24.628906 6.609375 -25.296875 C 8.179688 -25.960938 10.003906 -26.296875 12.078125 -26.296875 C 14.253906 -26.296875 16.132812 -25.921875 17.71875 -25.171875 C 19.3125 -24.421875 20.535156 -23.484375 21.390625 -22.359375 C 22.242188 -21.234375 22.695312 -20.128906 22.75 -19.046875 C 22.75 -18.816406 22.671875 -18.625 22.515625 -18.46875 C 22.367188 -18.3125 22.1875 -18.234375 21.96875 -18.234375 L 16.78125 -18.234375 C 16.238281 -18.234375 15.816406 -18.453125 15.515625 -18.890625 C 15.367188 -19.410156 14.988281 -19.847656 14.375 -20.203125 C 13.757812 -20.566406 12.992188 -20.75 12.078125 -20.75 C 11.035156 -20.75 10.226562 -20.5625 9.65625 -20.1875 C 9.09375 -19.820312 8.8125 -19.28125 8.8125 -18.5625 C 8.8125 -17.84375 9.179688 -17.28125 9.921875 -16.875 C 10.671875 -16.46875 12.054688 -16.054688 14.078125 -15.640625 C 16.398438 -15.210938 18.242188 -14.679688 19.609375 -14.046875 C 20.984375 -13.421875 22 -12.609375 22.65625 -11.609375 C 23.3125 -10.609375 23.640625 -9.34375 23.640625 -7.8125 C 23.640625 -6.132812 23.15625 -4.675781 22.1875 -3.4375 C 21.226562 -2.207031 19.894531 -1.265625 18.1875 -0.609375 C 16.488281 0.046875 14.539062 0.375 12.34375 0.375 Z M 12.34375 0.375 "/></g></g></g><g fill="#ffffff" fill-opacity="1"><g transform="translate(94.782248, 141.892286)"><g><path d="M 1.078125 0 C 0.878906 0 0.695312 -0.078125 0.53125 -0.234375 C 0.375 -0.398438 0.296875 -0.582031 0.296875 -0.78125 C 0.296875 -0.925781 0.304688 -1.035156 0.328125 -1.109375 L 8.96875 -24.859375 C 9.207031 -25.578125 9.703125 -25.9375 10.453125 -25.9375 L 16.21875 -25.9375 C 16.96875 -25.9375 17.460938 -25.578125 17.703125 -24.859375 L 26.34375 -1.109375 C 26.363281 -1.035156 26.375 -0.925781 26.375 -0.78125 C 26.375 -0.582031 26.289062 -0.398438 26.125 -0.234375 C 25.96875 -0.078125 25.789062 0 25.59375 0 L 20.78125 0 C 20.1875 0 19.769531 -0.269531 19.53125 -0.8125 L 18.1875 -4.40625 L 8.484375 -4.40625 L 7.15625 -0.8125 C 6.90625 -0.269531 6.484375 0 5.890625 0 Z M 10.046875 -9.96875 L 16.640625 -9.96875 L 13.34375 -19.40625 Z M 10.046875 -9.96875 "/></g></g></g><g fill="#ffffff" fill-opacity="1"><g transform="translate(121.081323, 141.892286)"><g><path d="M 13.265625 0.375 C 9.734375 0.375 6.957031 -0.472656 4.9375 -2.171875 C 2.925781 -3.878906 1.859375 -6.378906 1.734375 -9.671875 C 1.710938 -10.335938 1.703125 -11.421875 1.703125 -12.921875 C 1.703125 -14.453125 1.710938 -15.566406 1.734375 -16.265625 C 1.859375 -19.472656 2.941406 -21.945312 4.984375 -23.6875 C 7.023438 -25.425781 9.785156 -26.296875 13.265625 -26.296875 C 15.460938 -26.296875 17.429688 -25.9375 19.171875 -25.21875 C 20.910156 -24.507812 22.285156 -23.472656 23.296875 -22.109375 C 24.316406 -20.753906 24.847656 -19.148438 24.890625 -17.296875 C 24.890625 -17.078125 24.804688 -16.890625 24.640625 -16.734375 C 24.484375 -16.585938 24.296875 -16.515625 24.078125 -16.515625 L 18.8125 -16.515625 C 18.46875 -16.515625 18.210938 -16.582031 18.046875 -16.71875 C 17.890625 -16.863281 17.753906 -17.117188 17.640625 -17.484375 C 17.285156 -18.691406 16.753906 -19.535156 16.046875 -20.015625 C 15.347656 -20.503906 14.421875 -20.75 13.265625 -20.75 C 10.472656 -20.75 9.023438 -19.191406 8.921875 -16.078125 C 8.898438 -15.410156 8.890625 -14.382812 8.890625 -13 C 8.890625 -11.613281 8.898438 -10.566406 8.921875 -9.859375 C 9.023438 -6.742188 10.472656 -5.1875 13.265625 -5.1875 C 14.398438 -5.1875 15.332031 -5.429688 16.0625 -5.921875 C 16.789062 -6.421875 17.316406 -7.265625 17.640625 -8.453125 C 17.734375 -8.816406 17.863281 -9.066406 18.03125 -9.203125 C 18.207031 -9.335938 18.46875 -9.40625 18.8125 -9.40625 L 24.078125 -9.40625 C 24.296875 -9.40625 24.484375 -9.332031 24.640625 -9.1875 C 24.804688 -9.039062 24.890625 -8.851562 24.890625 -8.625 C 24.847656 -6.78125 24.316406 -5.175781 23.296875 -3.8125 C 22.285156 -2.457031 20.910156 -1.421875 19.171875 -0.703125 C 17.429688 0.015625 15.460938 0.375 13.265625 0.375 Z M 13.265625 0.375 "/></g></g></g><g fill="#ffffff" fill-opacity="1"><g transform="translate(146.861824, 141.892286)"><g><path d="M 1.078125 0 C 0.878906 0 0.695312 -0.078125 0.53125 -0.234375 C 0.375 -0.398438 0.296875 -0.582031 0.296875 -0.78125 C 0.296875 -0.925781 0.304688 -1.035156 0.328125 -1.109375 L 8.96875 -24.859375 C 9.207031 -25.578125 9.703125 -25.9375 10.453125 -25.9375 L 16.21875 -25.9375 C 16.96875 -25.9375 17.460938 -25.578125 17.703125 -24.859375 L 26.34375 -1.109375 C 26.363281 -1.035156 26.375 -0.925781 26.375 -0.78125 C 26.375 -0.582031 26.289062 -0.398438 26.125 -0.234375 C 25.96875 -0.078125 25.789062 0 25.59375 0 L 20.78125 0 C 20.1875 0 19.769531 -0.269531 19.53125 -0.8125 L 18.1875 -4.40625 L 8.484375 -4.40625 L 7.15625 -0.8125 C 6.90625 -0.269531 6.484375 0 5.890625 0 Z M 10.046875 -9.96875 L 16.640625 -9.96875 L 13.34375 -19.40625 Z M 10.046875 -9.96875 "/></g></g></g><g fill="#ffffff" fill-opacity="1"><g transform="translate(173.160899, 141.892286)"><g><path d="M 3.453125 0 C 3.203125 0 2.984375 -0.09375 2.796875 -0.28125 C 2.609375 -0.46875 2.515625 -0.679688 2.515625 -0.921875 L 2.515625 -24.96875 C 2.515625 -25.238281 2.597656 -25.46875 2.765625 -25.65625 C 2.941406 -25.84375 3.171875 -25.9375 3.453125 -25.9375 L 13.640625 -25.9375 C 16.898438 -25.9375 19.445312 -25.191406 21.28125 -23.703125 C 23.125 -22.222656 24.046875 -20.140625 24.046875 -17.453125 C 24.046875 -15.722656 23.644531 -14.25 22.84375 -13.03125 C 22.039062 -11.820312 20.9375 -10.882812 19.53125 -10.21875 L 24.53125 -1.1875 C 24.601562 -1.039062 24.640625 -0.90625 24.640625 -0.78125 C 24.640625 -0.582031 24.5625 -0.398438 24.40625 -0.234375 C 24.257812 -0.078125 24.078125 0 23.859375 0 L 18.640625 0 C 17.921875 0 17.410156 -0.332031 17.109375 -1 L 13.046875 -9.046875 L 9.484375 -9.046875 L 9.484375 -0.921875 C 9.484375 -0.648438 9.390625 -0.425781 9.203125 -0.25 C 9.015625 -0.0820312 8.785156 0 8.515625 0 Z M 13.59375 -14.484375 C 14.65625 -14.484375 15.460938 -14.75 16.015625 -15.28125 C 16.578125 -15.8125 16.859375 -16.546875 16.859375 -17.484375 C 16.859375 -18.421875 16.578125 -19.171875 16.015625 -19.734375 C 15.460938 -20.304688 14.65625 -20.59375 13.59375 -20.59375 L 9.484375 -20.59375 L 9.484375 -14.484375 Z M 13.59375 -14.484375 "/></g></g></g><g fill="#ffffff" fill-opacity="1"><g transform="translate(35.061358, 157.612616)"><g><path d="M 7.5625 -1.3125 C 8.507812 -1.3125 9.34375 -1.550781 10.0625 -2.03125 C 10.78125 -2.507812 11.3125 -3.160156 11.65625 -3.984375 L 13.25 -3.984375 C 12.8125 -2.722656 12.082031 -1.726562 11.0625 -1 C 9.976562 -0.226562 8.695312 0.15625 7.21875 0.15625 C 5.269531 0.15625 3.695312 -0.503906 2.5 -1.828125 C 1.351562 -3.097656 0.78125 -4.707031 0.78125 -6.65625 C 0.78125 -8.601562 1.351562 -10.210938 2.5 -11.484375 C 3.695312 -12.804688 5.269531 -13.46875 7.21875 -13.46875 C 8.695312 -13.46875 9.976562 -13.082031 11.0625 -12.3125 C 12.082031 -11.582031 12.8125 -10.585938 13.25 -9.328125 L 11.65625 -9.328125 C 11.3125 -10.148438 10.78125 -10.800781 10.0625 -11.28125 C 9.34375 -11.757812 8.507812 -12 7.5625 -12 C 6.613281 -12 5.820312 -11.863281 5.1875 -11.59375 C 4.5625 -11.320312 4.03125 -10.941406 3.59375 -10.453125 C 2.726562 -9.472656 2.296875 -8.207031 2.296875 -6.65625 C 2.296875 -5.101562 2.726562 -3.835938 3.59375 -2.859375 C 4.507812 -1.828125 5.832031 -1.3125 7.5625 -1.3125 Z M 7.5625 -1.3125 "/></g></g></g><g fill="#ffffff" fill-opacity="1"><g transform="translate(65.022173, 157.612616)"><g><path d="M 12.390625 -13.3125 L 12.390625 0 L 10.875 0 L 10.875 -5.9375 L 3.140625 -5.9375 L 3.140625 0 L 1.625 0 L 1.625 -13.3125 L 3.140625 -13.3125 L 3.140625 -7.40625 L 10.875 -7.40625 L 10.875 -13.3125 Z M 12.390625 -13.3125 "/></g></g></g><g fill="#ffffff" fill-opacity="1"><g transform="translate(95.123711, 157.612616)"><g><path d="M 12.796875 -13.3125 L 12.796875 -5.734375 C 12.796875 -3.960938 12.265625 -2.535156 11.203125 -1.453125 C 10.148438 -0.378906 8.789062 0.15625 7.125 0.15625 C 5.457031 0.15625 4.097656 -0.378906 3.046875 -1.453125 C 1.992188 -2.535156 1.46875 -3.960938 1.46875 -5.734375 L 1.46875 -13.3125 L 2.96875 -13.3125 L 2.96875 -5.6875 C 2.96875 -4.257812 3.398438 -3.140625 4.265625 -2.328125 C 5.003906 -1.648438 5.957031 -1.3125 7.125 -1.3125 C 8.289062 -1.3125 9.25 -1.648438 10 -2.328125 C 10.851562 -3.117188 11.28125 -4.238281 11.28125 -5.6875 L 11.28125 -13.3125 Z M 12.796875 -13.3125 "/></g></g></g><g fill="#ffffff" fill-opacity="1"><g transform="translate(125.466497, 157.612616)"><g><path d="M 3.140625 0 L 1.625 0 L 1.625 -13.3125 L 8 -13.3125 C 9.351562 -13.3125 10.441406 -12.9375 11.265625 -12.1875 C 12.078125 -11.445312 12.484375 -10.4375 12.484375 -9.15625 C 12.484375 -7.488281 11.796875 -6.351562 10.421875 -5.75 C 10.023438 -5.570312 9.640625 -5.445312 9.265625 -5.375 L 12.765625 0 L 10.984375 0 L 7.765625 -5.109375 L 3.140625 -5.109375 Z M 3.140625 -6.53125 L 7.734375 -6.53125 C 9.160156 -6.53125 10.140625 -6.972656 10.671875 -7.859375 C 10.878906 -8.191406 10.984375 -8.625 10.984375 -9.15625 C 10.984375 -10 10.691406 -10.664062 10.109375 -11.15625 C 9.535156 -11.644531 8.773438 -11.890625 7.828125 -11.890625 L 3.140625 -11.890625 Z M 3.140625 -6.53125 "/></g></g></g><g fill="#ffffff" fill-opacity="1"><g transform="translate(155.005125, 157.612616)"><g><path d="M 7.5625 -1.3125 C 8.507812 -1.3125 9.34375 -1.550781 10.0625 -2.03125 C 10.78125 -2.507812 11.3125 -3.160156 11.65625 -3.984375 L 13.25 -3.984375 C 12.8125 -2.722656 12.082031 -1.726562 11.0625 -1 C 9.976562 -0.226562 8.695312 0.15625 7.21875 0.15625 C 5.269531 0.15625 3.695312 -0.503906 2.5 -1.828125 C 1.351562 -3.097656 0.78125 -4.707031 0.78125 -6.65625 C 0.78125 -8.601562 1.351562 -10.210938 2.5 -11.484375 C 3.695312 -12.804688 5.269531 -13.46875 7.21875 -13.46875 C 8.695312 -13.46875 9.976562 -13.082031 11.0625 -12.3125 C 12.082031 -11.582031 12.8125 -10.585938 13.25 -9.328125 L 11.65625 -9.328125 C 11.3125 -10.148438 10.78125 -10.800781 10.0625 -11.28125 C 9.34375 -11.757812 8.507812 -12 7.5625 -12 C 6.613281 -12 5.820312 -11.863281 5.1875 -11.59375 C 4.5625 -11.320312 4.03125 -10.941406 3.59375 -10.453125 C 2.726562 -9.472656 2.296875 -8.207031 2.296875 -6.65625 C 2.296875 -5.101562 2.726562 -3.835938 3.59375 -2.859375 C 4.507812 -1.828125 5.832031 -1.3125 7.5625 -1.3125 Z M 7.5625 -1.3125 "/></g></g></g><g fill="#ffffff" fill-opacity="1"><g transform="translate(184.965936, 157.612616)"><g><path d="M 12.390625 -13.3125 L 12.390625 0 L 10.875 0 L 10.875 -5.9375 L 3.140625 -5.9375 L 3.140625 0 L 1.625 0 L 1.625 -13.3125 L 3.140625 -13.3125 L 3.140625 -7.40625 L 10.875 -7.40625 L 10.875 -13.3125 Z M 12.390625 -13.3125 "/></g></g></g><g fill="#ffffff" fill-opacity="1"><g transform="translate(25.292205, 178.671207)"><g><path d="M 16.640625 2.8125 C 16.640625 2.6875 16.472656 2.554688 16.140625 2.421875 C 15.804688 2.296875 15.421875 2.175781 14.984375 2.0625 C 14.554688 1.945312 14.140625 1.84375 13.734375 1.75 C 13.328125 1.664062 13.0625 1.613281 12.9375 1.59375 C 12.039062 1.445312 11.15625 1.328125 10.28125 1.234375 C 9.40625 1.140625 8.507812 1.09375 7.59375 1.09375 C 6.707031 1.09375 5.828125 1.132812 4.953125 1.21875 C 4.078125 1.300781 3.210938 1.457031 2.359375 1.6875 C 2.023438 1.769531 1.707031 1.875 1.40625 2 C 1.101562 2.132812 0.773438 2.203125 0.421875 2.203125 C 0.078125 2.203125 -0.222656 2.253906 -0.484375 2.359375 C -0.753906 2.460938 -1.003906 2.570312 -1.234375 2.6875 C -1.472656 2.8125 -1.703125 2.925781 -1.921875 3.03125 C -2.148438 3.132812 -2.382812 3.1875 -2.625 3.1875 C -2.914062 3.1875 -3.117188 3.046875 -3.234375 2.765625 C -3.359375 2.492188 -3.421875 2.242188 -3.421875 2.015625 C -3.421875 1.753906 -3.21875 1.503906 -2.8125 1.265625 C -2.40625 1.035156 -1.957031 0.820312 -1.46875 0.625 C -0.976562 0.4375 -0.515625 0.269531 -0.078125 0.125 C 0.359375 -0.0195312 0.609375 -0.15625 0.671875 -0.28125 C 1.585938 -1.988281 2.425781 -3.742188 3.1875 -5.546875 C 3.957031 -7.359375 4.726562 -9.148438 5.5 -10.921875 C 6.257812 -12.578125 7.039062 -14.222656 7.84375 -15.859375 C 8.65625 -17.503906 9.382812 -19.171875 10.03125 -20.859375 C 10.050781 -20.941406 10.070312 -21.039062 10.09375 -21.15625 C 10.113281 -21.269531 10.140625 -21.375 10.171875 -21.46875 C 10.203125 -21.570312 10.25 -21.664062 10.3125 -21.75 C 10.375 -21.832031 10.460938 -21.875 10.578125 -21.875 C 10.910156 -21.875 11.210938 -21.738281 11.484375 -21.46875 C 11.765625 -21.207031 11.90625 -20.914062 11.90625 -20.59375 C 11.90625 -20.40625 11.789062 -20.023438 11.5625 -19.453125 C 11.34375 -18.878906 11.039062 -18.171875 10.65625 -17.328125 C 10.28125 -16.484375 9.847656 -15.546875 9.359375 -14.515625 C 8.867188 -13.484375 8.363281 -12.414062 7.84375 -11.3125 C 7.320312 -10.21875 6.800781 -9.117188 6.28125 -8.015625 C 5.757812 -6.910156 5.285156 -5.878906 4.859375 -4.921875 C 4.429688 -3.960938 4.0625 -3.101562 3.75 -2.34375 C 3.4375 -1.59375 3.21875 -1.015625 3.09375 -0.609375 C 3.925781 -0.609375 4.75 -0.644531 5.5625 -0.71875 C 6.382812 -0.789062 7.210938 -0.828125 8.046875 -0.828125 C 8.390625 -0.828125 8.867188 -0.816406 9.484375 -0.796875 C 10.097656 -0.773438 10.753906 -0.726562 11.453125 -0.65625 C 12.160156 -0.582031 12.878906 -0.476562 13.609375 -0.34375 C 14.347656 -0.21875 15.003906 -0.0351562 15.578125 0.203125 C 16.160156 0.453125 16.640625 0.757812 17.015625 1.125 C 17.398438 1.5 17.59375 1.941406 17.59375 2.453125 C 17.59375 2.710938 17.472656 2.953125 17.234375 3.171875 C 17.003906 3.398438 16.753906 3.515625 16.484375 3.515625 C 16.328125 3.515625 16.21875 3.441406 16.15625 3.296875 C 16.21875 3.179688 16.3125 3.101562 16.4375 3.0625 C 16.570312 3.019531 16.640625 2.9375 16.640625 2.8125 Z M 16.640625 2.8125 "/></g></g></g><g fill="#ffffff" fill-opacity="1"><g transform="translate(40.862392, 178.671207)"><g><path d="M 5.65625 -1.40625 C 5.65625 -1.832031 5.707031 -2.238281 5.8125 -2.625 C 5.914062 -3.019531 6.035156 -3.398438 6.171875 -3.765625 C 6.316406 -4.128906 6.453125 -4.492188 6.578125 -4.859375 C 6.703125 -5.234375 6.785156 -5.613281 6.828125 -6 C 6.617188 -5.832031 6.347656 -5.5625 6.015625 -5.1875 C 5.691406 -4.8125 5.347656 -4.382812 4.984375 -3.90625 C 4.617188 -3.425781 4.242188 -2.929688 3.859375 -2.421875 C 3.472656 -1.910156 3.101562 -1.441406 2.75 -1.015625 C 2.40625 -0.597656 2.097656 -0.253906 1.828125 0.015625 C 1.566406 0.285156 1.375 0.421875 1.25 0.421875 C 0.800781 0.421875 0.46875 0.226562 0.25 -0.15625 C 0.0390625 -0.539062 -0.0625 -0.925781 -0.0625 -1.3125 C -0.0625 -2.25 0.101562 -3.066406 0.4375 -3.765625 C 0.78125 -4.472656 1.179688 -5.140625 1.640625 -5.765625 C 2.097656 -6.390625 2.5625 -7.015625 3.03125 -7.640625 C 3.5 -8.273438 3.863281 -9.003906 4.125 -9.828125 C 4.1875 -10.003906 4.15625 -10.117188 4.03125 -10.171875 C 3.914062 -10.222656 3.75 -10.207031 3.53125 -10.125 C 3.320312 -10.039062 3.085938 -9.90625 2.828125 -9.71875 C 2.578125 -9.539062 2.359375 -9.3125 2.171875 -9.03125 C 2.109375 -8.945312 2.035156 -8.9375 1.953125 -9 C 1.867188 -9.0625 1.78125 -9.144531 1.6875 -9.25 C 1.601562 -9.363281 1.53125 -9.488281 1.46875 -9.625 C 1.40625 -9.757812 1.375 -9.863281 1.375 -9.9375 C 1.375 -10.1875 1.46875 -10.40625 1.65625 -10.59375 C 1.851562 -10.789062 2.082031 -10.953125 2.34375 -11.078125 C 2.613281 -11.203125 2.890625 -11.289062 3.171875 -11.34375 C 3.460938 -11.40625 3.710938 -11.4375 3.921875 -11.4375 C 4.117188 -11.4375 4.332031 -11.40625 4.5625 -11.34375 C 4.800781 -11.289062 5.019531 -11.203125 5.21875 -11.078125 C 5.425781 -10.953125 5.59375 -10.789062 5.71875 -10.59375 C 5.84375 -10.40625 5.90625 -10.1875 5.90625 -9.9375 C 5.90625 -9.550781 5.804688 -9.132812 5.609375 -8.6875 C 5.421875 -8.238281 5.179688 -7.78125 4.890625 -7.3125 C 4.609375 -6.84375 4.300781 -6.363281 3.96875 -5.875 C 3.644531 -5.382812 3.335938 -4.90625 3.046875 -4.4375 C 2.765625 -3.96875 2.53125 -3.519531 2.34375 -3.09375 C 2.164062 -2.664062 2.078125 -2.265625 2.078125 -1.890625 C 3.015625 -2.910156 3.914062 -3.972656 4.78125 -5.078125 C 5.65625 -6.179688 6.550781 -7.242188 7.46875 -8.265625 C 7.664062 -8.484375 7.851562 -8.738281 8.03125 -9.03125 C 8.207031 -9.332031 8.375 -9.632812 8.53125 -9.9375 C 8.695312 -10.25 8.863281 -10.539062 9.03125 -10.8125 C 9.207031 -11.09375 9.410156 -11.332031 9.640625 -11.53125 L 9.703125 -11.5625 C 9.984375 -11.5625 10.253906 -11.445312 10.515625 -11.21875 C 10.785156 -11 10.921875 -10.738281 10.921875 -10.4375 C 10.921875 -10.25 10.832031 -9.957031 10.65625 -9.5625 C 10.488281 -9.164062 10.273438 -8.707031 10.015625 -8.1875 C 9.765625 -7.664062 9.484375 -7.101562 9.171875 -6.5 C 8.867188 -5.894531 8.59375 -5.296875 8.34375 -4.703125 C 8.101562 -4.117188 7.898438 -3.566406 7.734375 -3.046875 C 7.578125 -2.523438 7.507812 -2.082031 7.53125 -1.71875 C 7.726562 -1.789062 8.035156 -1.960938 8.453125 -2.234375 C 8.878906 -2.515625 9.34375 -2.835938 9.84375 -3.203125 C 10.351562 -3.578125 10.882812 -3.96875 11.4375 -4.375 C 11.988281 -4.78125 12.492188 -5.15625 12.953125 -5.5 C 13.410156 -5.851562 13.800781 -6.144531 14.125 -6.375 C 14.457031 -6.613281 14.65625 -6.742188 14.71875 -6.765625 L 15.046875 -6.703125 C 14.984375 -6.554688 14.742188 -6.285156 14.328125 -5.890625 C 13.910156 -5.492188 13.410156 -5.046875 12.828125 -4.546875 C 12.253906 -4.046875 11.625 -3.515625 10.9375 -2.953125 C 10.25 -2.390625 9.609375 -1.878906 9.015625 -1.421875 C 8.429688 -0.960938 7.929688 -0.582031 7.515625 -0.28125 C 7.097656 0.0078125 6.859375 0.15625 6.796875 0.15625 C 6.421875 0.15625 6.132812 -0.0234375 5.9375 -0.390625 C 5.75 -0.765625 5.65625 -1.101562 5.65625 -1.40625 Z M 5.65625 -1.40625 "/></g></g></g><g fill="#ffffff" fill-opacity="1"><g transform="translate(52.761811, 178.671207)"><g><path d="M 0 -2.390625 C 0 -2.898438 0.128906 -3.453125 0.390625 -4.046875 C 0.660156 -4.648438 1.015625 -5.257812 1.453125 -5.875 C 1.890625 -6.488281 2.390625 -7.082031 2.953125 -7.65625 C 3.515625 -8.238281 4.09375 -8.75 4.6875 -9.1875 C 5.289062 -9.625 5.894531 -9.972656 6.5 -10.234375 C 7.101562 -10.503906 7.648438 -10.640625 8.140625 -10.640625 C 8.378906 -10.640625 8.582031 -10.578125 8.75 -10.453125 C 8.914062 -10.335938 9.054688 -10.203125 9.171875 -10.046875 C 9.296875 -9.898438 9.40625 -9.757812 9.5 -9.625 C 9.59375 -9.488281 9.679688 -9.410156 9.765625 -9.390625 L 10.21875 -9.703125 C 10.539062 -9.941406 10.820312 -10.21875 11.0625 -10.53125 C 11.3125 -10.851562 11.539062 -11.191406 11.75 -11.546875 C 11.96875 -11.898438 12.175781 -12.257812 12.375 -12.625 C 12.570312 -13 12.769531 -13.347656 12.96875 -13.671875 C 13.007812 -13.710938 13.054688 -13.773438 13.109375 -13.859375 C 13.160156 -13.941406 13.207031 -13.984375 13.25 -13.984375 C 13.445312 -13.984375 13.664062 -13.878906 13.90625 -13.671875 C 14.15625 -13.472656 14.28125 -13.257812 14.28125 -13.03125 C 14.28125 -12.8125 14.175781 -12.453125 13.96875 -11.953125 C 13.769531 -11.453125 13.515625 -10.890625 13.203125 -10.265625 C 12.898438 -9.640625 12.570312 -8.988281 12.21875 -8.3125 C 11.863281 -7.644531 11.535156 -7.003906 11.234375 -6.390625 C 10.941406 -5.773438 10.695312 -5.234375 10.5 -4.765625 C 10.3125 -4.296875 10.226562 -3.972656 10.25 -3.796875 C 10.488281 -3.816406 10.726562 -3.863281 10.96875 -3.9375 C 11.21875 -4.019531 11.46875 -4.109375 11.71875 -4.203125 C 11.976562 -4.296875 12.234375 -4.378906 12.484375 -4.453125 C 12.742188 -4.523438 13 -4.5625 13.25 -4.5625 C 13.375 -4.5625 13.523438 -4.554688 13.703125 -4.546875 C 13.890625 -4.535156 14.070312 -4.503906 14.25 -4.453125 C 14.4375 -4.398438 14.597656 -4.335938 14.734375 -4.265625 C 14.878906 -4.191406 14.953125 -4.097656 14.953125 -3.984375 C 14.953125 -3.960938 14.832031 -3.914062 14.59375 -3.84375 C 14.363281 -3.769531 14.0625 -3.671875 13.6875 -3.546875 C 13.3125 -3.421875 12.90625 -3.273438 12.46875 -3.109375 C 12.03125 -2.953125 11.59375 -2.785156 11.15625 -2.609375 C 10.71875 -2.441406 10.316406 -2.265625 9.953125 -2.078125 C 9.597656 -1.898438 9.328125 -1.726562 9.140625 -1.5625 C 8.773438 -1.238281 8.367188 -0.742188 7.921875 -0.078125 C 7.472656 0.585938 7.003906 1.328125 6.515625 2.140625 C 6.023438 2.953125 5.519531 3.78125 5 4.625 C 4.476562 5.476562 3.945312 6.253906 3.40625 6.953125 C 2.863281 7.660156 2.320312 8.238281 1.78125 8.6875 C 1.25 9.132812 0.726562 9.359375 0.21875 9.359375 C -0.25 9.359375 -0.625 9.160156 -0.90625 8.765625 C -1.195312 8.367188 -1.34375 7.957031 -1.34375 7.53125 C -1.34375 7.039062 -1.210938 6.515625 -0.953125 5.953125 C -0.703125 5.390625 -0.367188 4.820312 0.046875 4.25 C 0.460938 3.675781 0.929688 3.101562 1.453125 2.53125 C 1.972656 1.96875 2.507812 1.441406 3.0625 0.953125 C 3.613281 0.460938 4.144531 0.0234375 4.65625 -0.359375 C 5.164062 -0.753906 5.613281 -1.070312 6 -1.3125 C 6.257812 -1.476562 6.582031 -1.828125 6.96875 -2.359375 C 7.363281 -2.890625 7.742188 -3.460938 8.109375 -4.078125 C 8.472656 -4.703125 8.789062 -5.320312 9.0625 -5.9375 C 9.34375 -6.550781 9.515625 -7.007812 9.578125 -7.3125 L 9.234375 -7.125 C 9.035156 -6.882812 8.742188 -6.539062 8.359375 -6.09375 C 7.984375 -5.644531 7.566406 -5.148438 7.109375 -4.609375 C 6.648438 -4.066406 6.164062 -3.507812 5.65625 -2.9375 C 5.144531 -2.363281 4.644531 -1.847656 4.15625 -1.390625 C 3.664062 -0.929688 3.210938 -0.550781 2.796875 -0.25 C 2.378906 0.0390625 2.039062 0.1875 1.78125 0.1875 C 1.46875 0.1875 1.195312 0.0976562 0.96875 -0.078125 C 0.75 -0.253906 0.566406 -0.46875 0.421875 -0.71875 C 0.285156 -0.96875 0.179688 -1.238281 0.109375 -1.53125 C 0.0351562 -1.832031 0 -2.117188 0 -2.390625 Z M 2.046875 -1.8125 C 2.535156 -2.09375 3.082031 -2.523438 3.6875 -3.109375 C 4.289062 -3.691406 4.898438 -4.3125 5.515625 -4.96875 C 6.140625 -5.632812 6.742188 -6.296875 7.328125 -6.953125 C 7.910156 -7.617188 8.4375 -8.164062 8.90625 -8.59375 L 8.96875 -8.90625 L 8.875 -8.90625 C 8.769531 -8.90625 8.695312 -8.894531 8.65625 -8.875 C 7.820312 -8.507812 7.054688 -8.101562 6.359375 -7.65625 C 5.671875 -7.21875 5.046875 -6.722656 4.484375 -6.171875 C 3.921875 -5.628906 3.425781 -5.007812 3 -4.3125 C 2.570312 -3.625 2.203125 -2.835938 1.890625 -1.953125 Z M 0.484375 7.15625 C 0.585938 7.113281 0.757812 6.945312 1 6.65625 C 1.25 6.375 1.53125 6.035156 1.84375 5.640625 C 2.164062 5.242188 2.492188 4.816406 2.828125 4.359375 C 3.160156 3.898438 3.460938 3.46875 3.734375 3.0625 C 4.015625 2.65625 4.25 2.300781 4.4375 2 C 4.625 1.707031 4.71875 1.53125 4.71875 1.46875 L 4.6875 1.375 C 4.519531 1.457031 4.296875 1.632812 4.015625 1.90625 C 3.742188 2.1875 3.453125 2.507812 3.140625 2.875 C 2.835938 3.238281 2.53125 3.632812 2.21875 4.0625 C 1.90625 4.5 1.617188 4.914062 1.359375 5.3125 C 1.109375 5.707031 0.898438 6.066406 0.734375 6.390625 C 0.566406 6.722656 0.484375 6.976562 0.484375 7.15625 Z M 0.484375 7.15625 "/></g></g></g><g fill="#ffffff" fill-opacity="1"><g transform="translate(65.242438, 178.671207)"><g><path d="M 16.578125 -6.703125 C 16.554688 -6.472656 16.351562 -6.128906 15.96875 -5.671875 C 15.582031 -5.210938 15.09375 -4.703125 14.5 -4.140625 C 13.90625 -3.578125 13.253906 -3 12.546875 -2.40625 C 11.847656 -1.820312 11.164062 -1.289062 10.5 -0.8125 C 9.84375 -0.332031 9.25 0.0546875 8.71875 0.359375 C 8.1875 0.671875 7.800781 0.828125 7.5625 0.828125 C 7.332031 0.828125 7.125 0.753906 6.9375 0.609375 C 6.757812 0.460938 6.597656 0.285156 6.453125 0.078125 C 6.304688 -0.117188 6.191406 -0.332031 6.109375 -0.5625 C 6.035156 -0.800781 6 -1.007812 6 -1.1875 C 6 -1.601562 6.066406 -2.003906 6.203125 -2.390625 C 6.347656 -2.773438 6.484375 -3.148438 6.609375 -3.515625 C 6.203125 -3.234375 5.8125 -2.890625 5.4375 -2.484375 C 5.070312 -2.085938 4.6875 -1.707031 4.28125 -1.34375 C 3.875 -0.976562 3.445312 -0.660156 3 -0.390625 C 2.550781 -0.128906 2.050781 0 1.5 0 C 1.070312 0 0.71875 -0.191406 0.4375 -0.578125 C 0.164062 -0.960938 0.03125 -1.363281 0.03125 -1.78125 C 0.03125 -2.507812 0.203125 -3.203125 0.546875 -3.859375 C 0.898438 -4.523438 1.335938 -5.148438 1.859375 -5.734375 C 2.390625 -6.316406 2.96875 -6.84375 3.59375 -7.3125 C 4.21875 -7.78125 4.804688 -8.195312 5.359375 -8.5625 C 5.492188 -8.664062 5.644531 -8.773438 5.8125 -8.890625 C 5.976562 -9.003906 6.148438 -9.0625 6.328125 -9.0625 C 6.640625 -9.0625 6.882812 -8.953125 7.0625 -8.734375 C 7.25 -8.515625 7.394531 -8.257812 7.5 -7.96875 C 7.613281 -7.675781 7.691406 -7.363281 7.734375 -7.03125 C 7.773438 -6.707031 7.804688 -6.429688 7.828125 -6.203125 C 7.910156 -6.328125 8.0625 -6.578125 8.28125 -6.953125 C 8.507812 -7.335938 8.742188 -7.726562 8.984375 -8.125 C 9.234375 -8.519531 9.46875 -8.867188 9.6875 -9.171875 C 9.914062 -9.484375 10.082031 -9.640625 10.1875 -9.640625 C 10.4375 -9.640625 10.660156 -9.519531 10.859375 -9.28125 C 11.066406 -9.050781 11.171875 -8.820312 11.171875 -8.59375 C 11.171875 -8.445312 11.082031 -8.171875 10.90625 -7.765625 C 10.726562 -7.359375 10.507812 -6.890625 10.25 -6.359375 C 10 -5.828125 9.722656 -5.257812 9.421875 -4.65625 C 9.117188 -4.0625 8.835938 -3.492188 8.578125 -2.953125 C 8.328125 -2.410156 8.113281 -1.921875 7.9375 -1.484375 C 7.757812 -1.046875 7.671875 -0.722656 7.671875 -0.515625 L 7.671875 -0.34375 C 8.003906 -0.34375 8.414062 -0.492188 8.90625 -0.796875 C 9.394531 -1.097656 9.921875 -1.476562 10.484375 -1.9375 C 11.054688 -2.394531 11.644531 -2.890625 12.25 -3.421875 C 12.851562 -3.953125 13.425781 -4.460938 13.96875 -4.953125 C 14.507812 -5.441406 15.003906 -5.867188 15.453125 -6.234375 C 15.898438 -6.609375 16.242188 -6.851562 16.484375 -6.96875 Z M 1.65625 -0.890625 C 1.976562 -0.890625 2.410156 -1.046875 2.953125 -1.359375 C 3.492188 -1.671875 4.03125 -2.050781 4.5625 -2.5 C 5.09375 -2.957031 5.550781 -3.425781 5.9375 -3.90625 C 6.320312 -4.382812 6.515625 -4.785156 6.515625 -5.109375 C 6.515625 -5.410156 6.53125 -5.710938 6.5625 -6.015625 C 6.59375 -6.328125 6.609375 -6.632812 6.609375 -6.9375 L 6.578125 -7.125 C 6.515625 -7.101562 6.390625 -7.023438 6.203125 -6.890625 C 6.023438 -6.765625 5.828125 -6.613281 5.609375 -6.4375 C 5.398438 -6.269531 5.203125 -6.101562 5.015625 -5.9375 C 4.828125 -5.769531 4.695312 -5.65625 4.625 -5.59375 C 3.945312 -5.019531 3.289062 -4.34375 2.65625 -3.5625 C 2.03125 -2.78125 1.601562 -1.953125 1.375 -1.078125 C 1.394531 -0.953125 1.488281 -0.890625 1.65625 -0.890625 Z M 1.65625 -0.890625 "/></g></g></g><g fill="#ffffff" fill-opacity="1"><g transform="translate(77.723065, 178.671207)"><g><path d="M 8.234375 -8.328125 C 8.234375 -8.421875 8.238281 -8.53125 8.25 -8.65625 C 8.257812 -8.78125 8.273438 -8.894531 8.296875 -9 L 8.171875 -9.0625 C 7.859375 -9.0625 7.507812 -8.914062 7.125 -8.625 C 6.738281 -8.34375 6.347656 -7.976562 5.953125 -7.53125 C 5.554688 -7.082031 5.148438 -6.578125 4.734375 -6.015625 C 4.328125 -5.453125 3.957031 -4.898438 3.625 -4.359375 C 3.289062 -3.816406 2.988281 -3.3125 2.71875 -2.84375 C 2.457031 -2.375 2.265625 -2.007812 2.140625 -1.75 C 2.097656 -1.664062 2.035156 -1.535156 1.953125 -1.359375 C 1.867188 -1.179688 1.78125 -1.003906 1.6875 -0.828125 C 1.601562 -0.660156 1.503906 -0.507812 1.390625 -0.375 C 1.273438 -0.25 1.171875 -0.1875 1.078125 -0.1875 C 0.929688 -0.1875 0.800781 -0.242188 0.6875 -0.359375 C 0.570312 -0.484375 0.472656 -0.628906 0.390625 -0.796875 C 0.316406 -0.960938 0.253906 -1.128906 0.203125 -1.296875 C 0.148438 -1.472656 0.125 -1.625 0.125 -1.75 C 0.125 -1.820312 0.207031 -2.0625 0.375 -2.46875 C 0.550781 -2.882812 0.769531 -3.375 1.03125 -3.9375 C 1.300781 -4.507812 1.59375 -5.128906 1.90625 -5.796875 C 2.226562 -6.460938 2.535156 -7.101562 2.828125 -7.71875 C 3.128906 -8.34375 3.394531 -8.898438 3.625 -9.390625 C 3.863281 -9.878906 4.019531 -10.238281 4.09375 -10.46875 L 4.375 -10.671875 C 4.519531 -10.671875 4.664062 -10.632812 4.8125 -10.5625 C 4.96875 -10.5 5.113281 -10.40625 5.25 -10.28125 C 5.382812 -10.15625 5.488281 -10.015625 5.5625 -9.859375 C 5.644531 -9.710938 5.6875 -9.566406 5.6875 -9.421875 C 5.6875 -9.316406 5.664062 -9.203125 5.625 -9.078125 C 5.582031 -8.960938 5.570312 -8.851562 5.59375 -8.75 C 5.738281 -8.894531 5.9375 -9.066406 6.1875 -9.265625 C 6.445312 -9.472656 6.722656 -9.660156 7.015625 -9.828125 C 7.316406 -10.003906 7.609375 -10.15625 7.890625 -10.28125 C 8.179688 -10.40625 8.4375 -10.46875 8.65625 -10.46875 C 9 -10.46875 9.332031 -10.332031 9.65625 -10.0625 C 9.988281 -9.800781 10.15625 -9.484375 10.15625 -9.109375 C 10.15625 -8.910156 10.125 -8.71875 10.0625 -8.53125 C 10 -8.351562 9.9375 -8.171875 9.875 -7.984375 C 9.9375 -8.003906 10.023438 -8.046875 10.140625 -8.109375 C 10.253906 -8.171875 10.367188 -8.226562 10.484375 -8.28125 C 10.609375 -8.34375 10.722656 -8.398438 10.828125 -8.453125 C 10.929688 -8.503906 11.015625 -8.53125 11.078125 -8.53125 L 11.203125 -8.53125 C 11.179688 -8.46875 11.078125 -8.351562 10.890625 -8.1875 C 10.703125 -8.03125 10.492188 -7.863281 10.265625 -7.6875 C 10.046875 -7.519531 9.835938 -7.367188 9.640625 -7.234375 C 9.453125 -7.097656 9.335938 -7.03125 9.296875 -7.03125 C 9.015625 -7.03125 8.765625 -7.179688 8.546875 -7.484375 C 8.335938 -7.796875 8.234375 -8.078125 8.234375 -8.328125 Z M 8.234375 -8.328125 "/></g></g></g><g fill="#ffffff" fill-opacity="1"><g transform="translate(88.154175, 178.671207)"><g/></g></g><g fill="#ffffff" fill-opacity="1"><g transform="translate(95.526308, 178.671207)"><g><path d="M 6.828125 2.84375 C 6.535156 2.84375 6.296875 2.757812 6.109375 2.59375 C 5.929688 2.4375 5.796875 2.234375 5.703125 1.984375 C 5.609375 1.742188 5.546875 1.484375 5.515625 1.203125 C 5.484375 0.929688 5.46875 0.691406 5.46875 0.484375 C 5.46875 -0.046875 5.5625 -0.59375 5.75 -1.15625 C 5.9375 -1.726562 6.03125 -2.28125 6.03125 -2.8125 L 6.03125 -3.0625 C 5.71875 -2.851562 5.398438 -2.570312 5.078125 -2.21875 C 4.753906 -1.863281 4.414062 -1.515625 4.0625 -1.171875 C 3.71875 -0.835938 3.351562 -0.539062 2.96875 -0.28125 C 2.582031 -0.03125 2.195312 0.09375 1.8125 0.09375 C 1.5625 0.09375 1.316406 0.0195312 1.078125 -0.125 C 0.847656 -0.269531 0.640625 -0.453125 0.453125 -0.671875 C 0.273438 -0.898438 0.132812 -1.140625 0.03125 -1.390625 C -0.0703125 -1.648438 -0.125 -1.898438 -0.125 -2.140625 C -0.125 -2.421875 -0.078125 -2.679688 0.015625 -2.921875 C 0.109375 -3.171875 0.207031 -3.421875 0.3125 -3.671875 C 1.101562 -5.398438 2.039062 -6.929688 3.125 -8.265625 C 4.21875 -9.609375 5.644531 -10.695312 7.40625 -11.53125 C 7.664062 -11.65625 7.878906 -11.78125 8.046875 -11.90625 C 8.210938 -12.039062 8.34375 -12.1875 8.4375 -12.34375 C 8.539062 -12.5 8.632812 -12.671875 8.71875 -12.859375 C 8.800781 -13.054688 8.894531 -13.273438 9 -13.515625 C 9.070312 -13.742188 9.21875 -14.070312 9.4375 -14.5 C 9.65625 -14.925781 9.898438 -15.40625 10.171875 -15.9375 C 10.441406 -16.46875 10.734375 -17.007812 11.046875 -17.5625 C 11.367188 -18.113281 11.691406 -18.617188 12.015625 -19.078125 C 12.347656 -19.535156 12.660156 -19.90625 12.953125 -20.1875 C 13.253906 -20.476562 13.523438 -20.625 13.765625 -20.625 C 13.910156 -20.625 14.054688 -20.578125 14.203125 -20.484375 C 14.359375 -20.390625 14.5 -20.273438 14.625 -20.140625 C 14.75 -20.015625 14.847656 -19.867188 14.921875 -19.703125 C 15.003906 -19.535156 15.046875 -19.382812 15.046875 -19.25 C 15.046875 -19.1875 14.925781 -18.925781 14.6875 -18.46875 C 14.457031 -18.007812 14.164062 -17.4375 13.8125 -16.75 C 13.457031 -16.0625 13.066406 -15.316406 12.640625 -14.515625 C 12.222656 -13.710938 11.820312 -12.941406 11.4375 -12.203125 C 11.050781 -11.472656 10.707031 -10.816406 10.40625 -10.234375 C 10.113281 -9.648438 9.921875 -9.25 9.828125 -9.03125 C 9.640625 -8.582031 9.40625 -7.910156 9.125 -7.015625 C 8.851562 -6.128906 8.585938 -5.203125 8.328125 -4.234375 C 8.078125 -3.265625 7.859375 -2.335938 7.671875 -1.453125 C 7.492188 -0.566406 7.40625 0.109375 7.40625 0.578125 L 7.4375 0.890625 C 7.78125 0.742188 8.265625 0.34375 8.890625 -0.3125 C 9.523438 -0.976562 10.210938 -1.71875 10.953125 -2.53125 C 11.703125 -3.351562 12.460938 -4.144531 13.234375 -4.90625 C 14.015625 -5.675781 14.734375 -6.234375 15.390625 -6.578125 L 15.390625 -6.203125 C 15.203125 -6.023438 14.875 -5.675781 14.40625 -5.15625 C 13.9375 -4.632812 13.398438 -4.035156 12.796875 -3.359375 C 12.203125 -2.691406 11.566406 -1.988281 10.890625 -1.25 C 10.210938 -0.519531 9.582031 0.144531 9 0.75 C 8.425781 1.351562 7.9375 1.851562 7.53125 2.25 C 7.132812 2.644531 6.898438 2.84375 6.828125 2.84375 Z M 7.5 -9.265625 C 6.945312 -9.128906 6.367188 -8.738281 5.765625 -8.09375 C 5.160156 -7.445312 4.582031 -6.71875 4.03125 -5.90625 C 3.488281 -5.09375 3 -4.269531 2.5625 -3.4375 C 2.132812 -2.613281 1.84375 -1.945312 1.6875 -1.4375 L 1.953125 -1.5625 C 2.585938 -1.96875 3.207031 -2.445312 3.8125 -3 C 4.425781 -3.550781 4.988281 -4.144531 5.5 -4.78125 C 6.007812 -5.425781 6.441406 -6.109375 6.796875 -6.828125 C 7.160156 -7.554688 7.414062 -8.3125 7.5625 -9.09375 Z M 7.5 -9.265625 "/></g></g></g><g fill="#ffffff" fill-opacity="1"><g transform="translate(108.435188, 178.671207)"><g><path d="M 2.046875 0.28125 C 1.617188 0.257812 1.257812 0.148438 0.96875 -0.046875 C 0.6875 -0.242188 0.46875 -0.488281 0.3125 -0.78125 C 0.164062 -1.070312 0.0664062 -1.390625 0.015625 -1.734375 C -0.0351562 -2.085938 -0.0390625 -2.4375 0 -2.78125 C 0.0625 -3.375 0.25 -4.039062 0.5625 -4.78125 C 0.882812 -5.53125 1.273438 -6.226562 1.734375 -6.875 C 2.191406 -7.53125 2.691406 -8.082031 3.234375 -8.53125 C 3.785156 -8.976562 4.335938 -9.203125 4.890625 -9.203125 C 5.398438 -9.203125 5.828125 -8.988281 6.171875 -8.5625 C 6.523438 -8.132812 6.703125 -7.675781 6.703125 -7.1875 C 6.703125 -6.757812 6.53125 -6.28125 6.1875 -5.75 C 5.851562 -5.21875 5.457031 -4.726562 5 -4.28125 C 4.539062 -3.832031 4.066406 -3.453125 3.578125 -3.140625 C 3.085938 -2.835938 2.691406 -2.6875 2.390625 -2.6875 C 2.285156 -2.6875 2.1875 -2.710938 2.09375 -2.765625 C 2 -2.816406 1.910156 -2.863281 1.828125 -2.90625 C 1.710938 -2.800781 1.632812 -2.648438 1.59375 -2.453125 C 1.550781 -2.265625 1.546875 -2.070312 1.578125 -1.875 C 1.609375 -1.6875 1.671875 -1.519531 1.765625 -1.375 C 1.867188 -1.226562 2.023438 -1.15625 2.234375 -1.15625 C 2.597656 -1.15625 3.039062 -1.265625 3.5625 -1.484375 C 4.082031 -1.703125 4.648438 -1.984375 5.265625 -2.328125 C 5.878906 -2.671875 6.507812 -3.054688 7.15625 -3.484375 C 7.8125 -3.910156 8.429688 -4.335938 9.015625 -4.765625 C 9.609375 -5.203125 10.15625 -5.613281 10.65625 -6 C 11.15625 -6.382812 11.5625 -6.707031 11.875 -6.96875 L 12.140625 -7.03125 L 12.140625 -7 L 12.234375 -6.859375 L 12.234375 -6.828125 C 11.890625 -6.453125 11.460938 -6.019531 10.953125 -5.53125 C 10.441406 -5.039062 9.890625 -4.53125 9.296875 -4 C 8.703125 -3.476562 8.082031 -2.957031 7.4375 -2.4375 C 6.800781 -1.914062 6.164062 -1.445312 5.53125 -1.03125 C 4.90625 -0.625 4.289062 -0.296875 3.6875 -0.046875 C 3.082031 0.191406 2.535156 0.300781 2.046875 0.28125 Z M 3.09375 -5.015625 C 3.5 -5.242188 3.867188 -5.507812 4.203125 -5.8125 C 4.546875 -6.113281 4.828125 -6.484375 5.046875 -6.921875 L 5.046875 -7.0625 C 4.878906 -6.976562 4.695312 -6.851562 4.5 -6.6875 C 4.3125 -6.53125 4.113281 -6.347656 3.90625 -6.140625 C 3.707031 -5.941406 3.523438 -5.738281 3.359375 -5.53125 C 3.203125 -5.332031 3.082031 -5.160156 3 -5.015625 Z M 3.09375 -5.015625 "/></g></g></g><g fill="#ffffff" fill-opacity="1"><g transform="translate(116.877965, 178.671207)"><g/></g></g><g fill="#ffffff" fill-opacity="1"><g transform="translate(124.250097, 178.671207)"><g><path d="M 16.578125 -6.703125 C 16.554688 -6.472656 16.351562 -6.128906 15.96875 -5.671875 C 15.582031 -5.210938 15.09375 -4.703125 14.5 -4.140625 C 13.90625 -3.578125 13.253906 -3 12.546875 -2.40625 C 11.847656 -1.820312 11.164062 -1.289062 10.5 -0.8125 C 9.84375 -0.332031 9.25 0.0546875 8.71875 0.359375 C 8.1875 0.671875 7.800781 0.828125 7.5625 0.828125 C 7.332031 0.828125 7.125 0.753906 6.9375 0.609375 C 6.757812 0.460938 6.597656 0.285156 6.453125 0.078125 C 6.304688 -0.117188 6.191406 -0.332031 6.109375 -0.5625 C 6.035156 -0.800781 6 -1.007812 6 -1.1875 C 6 -1.601562 6.066406 -2.003906 6.203125 -2.390625 C 6.347656 -2.773438 6.484375 -3.148438 6.609375 -3.515625 C 6.203125 -3.234375 5.8125 -2.890625 5.4375 -2.484375 C 5.070312 -2.085938 4.6875 -1.707031 4.28125 -1.34375 C 3.875 -0.976562 3.445312 -0.660156 3 -0.390625 C 2.550781 -0.128906 2.050781 0 1.5 0 C 1.070312 0 0.71875 -0.191406 0.4375 -0.578125 C 0.164062 -0.960938 0.03125 -1.363281 0.03125 -1.78125 C 0.03125 -2.507812 0.203125 -3.203125 0.546875 -3.859375 C 0.898438 -4.523438 1.335938 -5.148438 1.859375 -5.734375 C 2.390625 -6.316406 2.96875 -6.84375 3.59375 -7.3125 C 4.21875 -7.78125 4.804688 -8.195312 5.359375 -8.5625 C 5.492188 -8.664062 5.644531 -8.773438 5.8125 -8.890625 C 5.976562 -9.003906 6.148438 -9.0625 6.328125 -9.0625 C 6.640625 -9.0625 6.882812 -8.953125 7.0625 -8.734375 C 7.25 -8.515625 7.394531 -8.257812 7.5 -7.96875 C 7.613281 -7.675781 7.691406 -7.363281 7.734375 -7.03125 C 7.773438 -6.707031 7.804688 -6.429688 7.828125 -6.203125 C 7.910156 -6.328125 8.0625 -6.578125 8.28125 -6.953125 C 8.507812 -7.335938 8.742188 -7.726562 8.984375 -8.125 C 9.234375 -8.519531 9.46875 -8.867188 9.6875 -9.171875 C 9.914062 -9.484375 10.082031 -9.640625 10.1875 -9.640625 C 10.4375 -9.640625 10.660156 -9.519531 10.859375 -9.28125 C 11.066406 -9.050781 11.171875 -8.820312 11.171875 -8.59375 C 11.171875 -8.445312 11.082031 -8.171875 10.90625 -7.765625 C 10.726562 -7.359375 10.507812 -6.890625 10.25 -6.359375 C 10 -5.828125 9.722656 -5.257812 9.421875 -4.65625 C 9.117188 -4.0625 8.835938 -3.492188 8.578125 -2.953125 C 8.328125 -2.410156 8.113281 -1.921875 7.9375 -1.484375 C 7.757812 -1.046875 7.671875 -0.722656 7.671875 -0.515625 L 7.671875 -0.34375 C 8.003906 -0.34375 8.414062 -0.492188 8.90625 -0.796875 C 9.394531 -1.097656 9.921875 -1.476562 10.484375 -1.9375 C 11.054688 -2.394531 11.644531 -2.890625 12.25 -3.421875 C 12.851562 -3.953125 13.425781 -4.460938 13.96875 -4.953125 C 14.507812 -5.441406 15.003906 -5.867188 15.453125 -6.234375 C 15.898438 -6.609375 16.242188 -6.851562 16.484375 -6.96875 Z M 1.65625 -0.890625 C 1.976562 -0.890625 2.410156 -1.046875 2.953125 -1.359375 C 3.492188 -1.671875 4.03125 -2.050781 4.5625 -2.5 C 5.09375 -2.957031 5.550781 -3.425781 5.9375 -3.90625 C 6.320312 -4.382812 6.515625 -4.785156 6.515625 -5.109375 C 6.515625 -5.410156 6.53125 -5.710938 6.5625 -6.015625 C 6.59375 -6.328125 6.609375 -6.632812 6.609375 -6.9375 L 6.578125 -7.125 C 6.515625 -7.101562 6.390625 -7.023438 6.203125 -6.890625 C 6.023438 -6.765625 5.828125 -6.613281 5.609375 -6.4375 C 5.398438 -6.269531 5.203125 -6.101562 5.015625 -5.9375 C 4.828125 -5.769531 4.695312 -5.65625 4.625 -5.59375 C 3.945312 -5.019531 3.289062 -4.34375 2.65625 -3.5625 C 2.03125 -2.78125 1.601562 -1.953125 1.375 -1.078125 C 1.394531 -0.953125 1.488281 -0.890625 1.65625 -0.890625 Z M 1.65625 -0.890625 "/></g></g></g><g fill="#ffffff" fill-opacity="1"><g transform="translate(136.73073, 178.671207)"><g><path d="M 6.828125 2.84375 C 6.535156 2.84375 6.296875 2.757812 6.109375 2.59375 C 5.929688 2.4375 5.796875 2.234375 5.703125 1.984375 C 5.609375 1.742188 5.546875 1.484375 5.515625 1.203125 C 5.484375 0.929688 5.46875 0.691406 5.46875 0.484375 C 5.46875 -0.046875 5.5625 -0.59375 5.75 -1.15625 C 5.9375 -1.726562 6.03125 -2.28125 6.03125 -2.8125 L 6.03125 -3.0625 C 5.71875 -2.851562 5.398438 -2.570312 5.078125 -2.21875 C 4.753906 -1.863281 4.414062 -1.515625 4.0625 -1.171875 C 3.71875 -0.835938 3.351562 -0.539062 2.96875 -0.28125 C 2.582031 -0.03125 2.195312 0.09375 1.8125 0.09375 C 1.5625 0.09375 1.316406 0.0195312 1.078125 -0.125 C 0.847656 -0.269531 0.640625 -0.453125 0.453125 -0.671875 C 0.273438 -0.898438 0.132812 -1.140625 0.03125 -1.390625 C -0.0703125 -1.648438 -0.125 -1.898438 -0.125 -2.140625 C -0.125 -2.421875 -0.078125 -2.679688 0.015625 -2.921875 C 0.109375 -3.171875 0.207031 -3.421875 0.3125 -3.671875 C 1.101562 -5.398438 2.039062 -6.929688 3.125 -8.265625 C 4.21875 -9.609375 5.644531 -10.695312 7.40625 -11.53125 C 7.664062 -11.65625 7.878906 -11.78125 8.046875 -11.90625 C 8.210938 -12.039062 8.34375 -12.1875 8.4375 -12.34375 C 8.539062 -12.5 8.632812 -12.671875 8.71875 -12.859375 C 8.800781 -13.054688 8.894531 -13.273438 9 -13.515625 C 9.070312 -13.742188 9.21875 -14.070312 9.4375 -14.5 C 9.65625 -14.925781 9.898438 -15.40625 10.171875 -15.9375 C 10.441406 -16.46875 10.734375 -17.007812 11.046875 -17.5625 C 11.367188 -18.113281 11.691406 -18.617188 12.015625 -19.078125 C 12.347656 -19.535156 12.660156 -19.90625 12.953125 -20.1875 C 13.253906 -20.476562 13.523438 -20.625 13.765625 -20.625 C 13.910156 -20.625 14.054688 -20.578125 14.203125 -20.484375 C 14.359375 -20.390625 14.5 -20.273438 14.625 -20.140625 C 14.75 -20.015625 14.847656 -19.867188 14.921875 -19.703125 C 15.003906 -19.535156 15.046875 -19.382812 15.046875 -19.25 C 15.046875 -19.1875 14.925781 -18.925781 14.6875 -18.46875 C 14.457031 -18.007812 14.164062 -17.4375 13.8125 -16.75 C 13.457031 -16.0625 13.066406 -15.316406 12.640625 -14.515625 C 12.222656 -13.710938 11.820312 -12.941406 11.4375 -12.203125 C 11.050781 -11.472656 10.707031 -10.816406 10.40625 -10.234375 C 10.113281 -9.648438 9.921875 -9.25 9.828125 -9.03125 C 9.640625 -8.582031 9.40625 -7.910156 9.125 -7.015625 C 8.851562 -6.128906 8.585938 -5.203125 8.328125 -4.234375 C 8.078125 -3.265625 7.859375 -2.335938 7.671875 -1.453125 C 7.492188 -0.566406 7.40625 0.109375 7.40625 0.578125 L 7.4375 0.890625 C 7.78125 0.742188 8.265625 0.34375 8.890625 -0.3125 C 9.523438 -0.976562 10.210938 -1.71875 10.953125 -2.53125 C 11.703125 -3.351562 12.460938 -4.144531 13.234375 -4.90625 C 14.015625 -5.675781 14.734375 -6.234375 15.390625 -6.578125 L 15.390625 -6.203125 C 15.203125 -6.023438 14.875 -5.675781 14.40625 -5.15625 C 13.9375 -4.632812 13.398438 -4.035156 12.796875 -3.359375 C 12.203125 -2.691406 11.566406 -1.988281 10.890625 -1.25 C 10.210938 -0.519531 9.582031 0.144531 9 0.75 C 8.425781 1.351562 7.9375 1.851562 7.53125 2.25 C 7.132812 2.644531 6.898438 2.84375 6.828125 2.84375 Z M 7.5 -9.265625 C 6.945312 -9.128906 6.367188 -8.738281 5.765625 -8.09375 C 5.160156 -7.445312 4.582031 -6.71875 4.03125 -5.90625 C 3.488281 -5.09375 3 -4.269531 2.5625 -3.4375 C 2.132812 -2.613281 1.84375 -1.945312 1.6875 -1.4375 L 1.953125 -1.5625 C 2.585938 -1.96875 3.207031 -2.445312 3.8125 -3 C 4.425781 -3.550781 4.988281 -4.144531 5.5 -4.78125 C 6.007812 -5.425781 6.441406 -6.109375 6.796875 -6.828125 C 7.160156 -7.554688 7.414062 -8.3125 7.5625 -9.09375 Z M 7.5 -9.265625 "/></g></g></g><g fill="#ffffff" fill-opacity="1"><g transform="translate(149.639604, 178.671207)"><g><path d="M 9.328125 -5.6875 C 9.148438 -5.6875 8.96875 -5.703125 8.78125 -5.734375 C 8.59375 -5.765625 8.410156 -5.800781 8.234375 -5.84375 C 7.898438 -5.375 7.515625 -4.8125 7.078125 -4.15625 C 6.640625 -3.507812 6.160156 -2.878906 5.640625 -2.265625 C 5.117188 -1.648438 4.554688 -1.128906 3.953125 -0.703125 C 3.359375 -0.273438 2.734375 -0.0625 2.078125 -0.0625 C 1.523438 -0.0625 1.054688 -0.273438 0.671875 -0.703125 C 0.285156 -1.128906 0.09375 -1.609375 0.09375 -2.140625 C 0.09375 -2.460938 0.191406 -2.863281 0.390625 -3.34375 C 0.597656 -3.820312 0.863281 -4.328125 1.1875 -4.859375 C 1.519531 -5.390625 1.894531 -5.921875 2.3125 -6.453125 C 2.726562 -6.984375 3.148438 -7.457031 3.578125 -7.875 C 4.003906 -8.289062 4.421875 -8.625 4.828125 -8.875 C 5.242188 -9.132812 5.613281 -9.265625 5.9375 -9.265625 C 6.21875 -9.265625 6.503906 -9.125 6.796875 -8.84375 C 7.097656 -8.570312 7.25 -8.296875 7.25 -8.015625 C 7.25 -7.785156 7.148438 -7.609375 6.953125 -7.484375 C 6.765625 -7.367188 6.585938 -7.257812 6.421875 -7.15625 C 5.359375 -6.445312 4.390625 -5.628906 3.515625 -4.703125 C 2.640625 -3.785156 1.957031 -2.726562 1.46875 -1.53125 L 1.71875 -1.375 C 2.144531 -1.4375 2.625 -1.648438 3.15625 -2.015625 C 3.6875 -2.378906 4.207031 -2.804688 4.71875 -3.296875 C 5.238281 -3.785156 5.710938 -4.289062 6.140625 -4.8125 C 6.578125 -5.332031 6.914062 -5.769531 7.15625 -6.125 C 7.28125 -6.300781 7.363281 -6.53125 7.40625 -6.8125 C 7.445312 -7.101562 7.492188 -7.382812 7.546875 -7.65625 C 7.609375 -7.9375 7.703125 -8.175781 7.828125 -8.375 C 7.953125 -8.582031 8.144531 -8.6875 8.40625 -8.6875 C 8.570312 -8.6875 8.703125 -8.597656 8.796875 -8.421875 C 8.890625 -8.253906 8.9375 -8.097656 8.9375 -7.953125 C 8.9375 -7.742188 8.890625 -7.535156 8.796875 -7.328125 C 8.703125 -7.128906 8.632812 -6.929688 8.59375 -6.734375 C 8.695312 -6.691406 8.804688 -6.660156 8.921875 -6.640625 C 9.035156 -6.617188 9.140625 -6.609375 9.234375 -6.609375 C 9.566406 -6.609375 9.890625 -6.660156 10.203125 -6.765625 C 10.515625 -6.878906 10.828125 -7.019531 11.140625 -7.1875 C 11.460938 -7.351562 11.765625 -7.523438 12.046875 -7.703125 C 12.335938 -7.890625 12.613281 -8.066406 12.875 -8.234375 L 13 -7.953125 C 12.957031 -7.765625 12.785156 -7.539062 12.484375 -7.28125 C 12.191406 -7.019531 11.847656 -6.769531 11.453125 -6.53125 C 11.054688 -6.300781 10.660156 -6.101562 10.265625 -5.9375 C 9.867188 -5.769531 9.554688 -5.6875 9.328125 -5.6875 Z M 9.328125 -5.6875 "/></g></g></g><g fill="#ffffff" fill-opacity="1"><g transform="translate(158.602405, 178.671207)"><g><path d="M 8.234375 -8.328125 C 8.234375 -8.421875 8.238281 -8.53125 8.25 -8.65625 C 8.257812 -8.78125 8.273438 -8.894531 8.296875 -9 L 8.171875 -9.0625 C 7.859375 -9.0625 7.507812 -8.914062 7.125 -8.625 C 6.738281 -8.34375 6.347656 -7.976562 5.953125 -7.53125 C 5.554688 -7.082031 5.148438 -6.578125 4.734375 -6.015625 C 4.328125 -5.453125 3.957031 -4.898438 3.625 -4.359375 C 3.289062 -3.816406 2.988281 -3.3125 2.71875 -2.84375 C 2.457031 -2.375 2.265625 -2.007812 2.140625 -1.75 C 2.097656 -1.664062 2.035156 -1.535156 1.953125 -1.359375 C 1.867188 -1.179688 1.78125 -1.003906 1.6875 -0.828125 C 1.601562 -0.660156 1.503906 -0.507812 1.390625 -0.375 C 1.273438 -0.25 1.171875 -0.1875 1.078125 -0.1875 C 0.929688 -0.1875 0.800781 -0.242188 0.6875 -0.359375 C 0.570312 -0.484375 0.472656 -0.628906 0.390625 -0.796875 C 0.316406 -0.960938 0.253906 -1.128906 0.203125 -1.296875 C 0.148438 -1.472656 0.125 -1.625 0.125 -1.75 C 0.125 -1.820312 0.207031 -2.0625 0.375 -2.46875 C 0.550781 -2.882812 0.769531 -3.375 1.03125 -3.9375 C 1.300781 -4.507812 1.59375 -5.128906 1.90625 -5.796875 C 2.226562 -6.460938 2.535156 -7.101562 2.828125 -7.71875 C 3.128906 -8.34375 3.394531 -8.898438 3.625 -9.390625 C 3.863281 -9.878906 4.019531 -10.238281 4.09375 -10.46875 L 4.375 -10.671875 C 4.519531 -10.671875 4.664062 -10.632812 4.8125 -10.5625 C 4.96875 -10.5 5.113281 -10.40625 5.25 -10.28125 C 5.382812 -10.15625 5.488281 -10.015625 5.5625 -9.859375 C 5.644531 -9.710938 5.6875 -9.566406 5.6875 -9.421875 C 5.6875 -9.316406 5.664062 -9.203125 5.625 -9.078125 C 5.582031 -8.960938 5.570312 -8.851562 5.59375 -8.75 C 5.738281 -8.894531 5.9375 -9.066406 6.1875 -9.265625 C 6.445312 -9.472656 6.722656 -9.660156 7.015625 -9.828125 C 7.316406 -10.003906 7.609375 -10.15625 7.890625 -10.28125 C 8.179688 -10.40625 8.4375 -10.46875 8.65625 -10.46875 C 9 -10.46875 9.332031 -10.332031 9.65625 -10.0625 C 9.988281 -9.800781 10.15625 -9.484375 10.15625 -9.109375 C 10.15625 -8.910156 10.125 -8.71875 10.0625 -8.53125 C 10 -8.351562 9.9375 -8.171875 9.875 -7.984375 C 9.9375 -8.003906 10.023438 -8.046875 10.140625 -8.109375 C 10.253906 -8.171875 10.367188 -8.226562 10.484375 -8.28125 C 10.609375 -8.34375 10.722656 -8.398438 10.828125 -8.453125 C 10.929688 -8.503906 11.015625 -8.53125 11.078125 -8.53125 L 11.203125 -8.53125 C 11.179688 -8.46875 11.078125 -8.351562 10.890625 -8.1875 C 10.703125 -8.03125 10.492188 -7.863281 10.265625 -7.6875 C 10.046875 -7.519531 9.835938 -7.367188 9.640625 -7.234375 C 9.453125 -7.097656 9.335938 -7.03125 9.296875 -7.03125 C 9.015625 -7.03125 8.765625 -7.179688 8.546875 -7.484375 C 8.335938 -7.796875 8.234375 -8.078125 8.234375 -8.328125 Z M 8.234375 -8.328125 "/></g></g></g><g fill="#ffffff" fill-opacity="1"><g transform="translate(169.033509, 178.671207)"><g><path d="M 16.578125 -6.703125 C 16.554688 -6.472656 16.351562 -6.128906 15.96875 -5.671875 C 15.582031 -5.210938 15.09375 -4.703125 14.5 -4.140625 C 13.90625 -3.578125 13.253906 -3 12.546875 -2.40625 C 11.847656 -1.820312 11.164062 -1.289062 10.5 -0.8125 C 9.84375 -0.332031 9.25 0.0546875 8.71875 0.359375 C 8.1875 0.671875 7.800781 0.828125 7.5625 0.828125 C 7.332031 0.828125 7.125 0.753906 6.9375 0.609375 C 6.757812 0.460938 6.597656 0.285156 6.453125 0.078125 C 6.304688 -0.117188 6.191406 -0.332031 6.109375 -0.5625 C 6.035156 -0.800781 6 -1.007812 6 -1.1875 C 6 -1.601562 6.066406 -2.003906 6.203125 -2.390625 C 6.347656 -2.773438 6.484375 -3.148438 6.609375 -3.515625 C 6.203125 -3.234375 5.8125 -2.890625 5.4375 -2.484375 C 5.070312 -2.085938 4.6875 -1.707031 4.28125 -1.34375 C 3.875 -0.976562 3.445312 -0.660156 3 -0.390625 C 2.550781 -0.128906 2.050781 0 1.5 0 C 1.070312 0 0.71875 -0.191406 0.4375 -0.578125 C 0.164062 -0.960938 0.03125 -1.363281 0.03125 -1.78125 C 0.03125 -2.507812 0.203125 -3.203125 0.546875 -3.859375 C 0.898438 -4.523438 1.335938 -5.148438 1.859375 -5.734375 C 2.390625 -6.316406 2.96875 -6.84375 3.59375 -7.3125 C 4.21875 -7.78125 4.804688 -8.195312 5.359375 -8.5625 C 5.492188 -8.664062 5.644531 -8.773438 5.8125 -8.890625 C 5.976562 -9.003906 6.148438 -9.0625 6.328125 -9.0625 C 6.640625 -9.0625 6.882812 -8.953125 7.0625 -8.734375 C 7.25 -8.515625 7.394531 -8.257812 7.5 -7.96875 C 7.613281 -7.675781 7.691406 -7.363281 7.734375 -7.03125 C 7.773438 -6.707031 7.804688 -6.429688 7.828125 -6.203125 C 7.910156 -6.328125 8.0625 -6.578125 8.28125 -6.953125 C 8.507812 -7.335938 8.742188 -7.726562 8.984375 -8.125 C 9.234375 -8.519531 9.46875 -8.867188 9.6875 -9.171875 C 9.914062 -9.484375 10.082031 -9.640625 10.1875 -9.640625 C 10.4375 -9.640625 10.660156 -9.519531 10.859375 -9.28125 C 11.066406 -9.050781 11.171875 -8.820312 11.171875 -8.59375 C 11.171875 -8.445312 11.082031 -8.171875 10.90625 -7.765625 C 10.726562 -7.359375 10.507812 -6.890625 10.25 -6.359375 C 10 -5.828125 9.722656 -5.257812 9.421875 -4.65625 C 9.117188 -4.0625 8.835938 -3.492188 8.578125 -2.953125 C 8.328125 -2.410156 8.113281 -1.921875 7.9375 -1.484375 C 7.757812 -1.046875 7.671875 -0.722656 7.671875 -0.515625 L 7.671875 -0.34375 C 8.003906 -0.34375 8.414062 -0.492188 8.90625 -0.796875 C 9.394531 -1.097656 9.921875 -1.476562 10.484375 -1.9375 C 11.054688 -2.394531 11.644531 -2.890625 12.25 -3.421875 C 12.851562 -3.953125 13.425781 -4.460938 13.96875 -4.953125 C 14.507812 -5.441406 15.003906 -5.867188 15.453125 -6.234375 C 15.898438 -6.609375 16.242188 -6.851562 16.484375 -6.96875 Z M 1.65625 -0.890625 C 1.976562 -0.890625 2.410156 -1.046875 2.953125 -1.359375 C 3.492188 -1.671875 4.03125 -2.050781 4.5625 -2.5 C 5.09375 -2.957031 5.550781 -3.425781 5.9375 -3.90625 C 6.320312 -4.382812 6.515625 -4.785156 6.515625 -5.109375 C 6.515625 -5.410156 6.53125 -5.710938 6.5625 -6.015625 C 6.59375 -6.328125 6.609375 -6.632812 6.609375 -6.9375 L 6.578125 -7.125 C 6.515625 -7.101562 6.390625 -7.023438 6.203125 -6.890625 C 6.023438 -6.765625 5.828125 -6.613281 5.609375 -6.4375 C 5.398438 -6.269531 5.203125 -6.101562 5.015625 -5.9375 C 4.828125 -5.769531 4.695312 -5.65625 4.625 -5.59375 C 3.945312 -5.019531 3.289062 -4.34375 2.65625 -3.5625 C 2.03125 -2.78125 1.601562 -1.953125 1.375 -1.078125 C 1.394531 -0.953125 1.488281 -0.890625 1.65625 -0.890625 Z M 1.65625 -0.890625 "/></g></g></g><g fill="#ffffff" fill-opacity="1"><g transform="translate(181.51413, 178.671207)"><g><path d="M 0.25 -2.171875 C 0.25 -3.234375 0.5 -4.28125 1 -5.3125 C 1.5 -6.34375 2.140625 -7.289062 2.921875 -8.15625 C 3.703125 -9.019531 4.582031 -9.769531 5.5625 -10.40625 C 6.539062 -11.050781 7.507812 -11.53125 8.46875 -11.84375 C 8.65625 -11.84375 8.890625 -11.816406 9.171875 -11.765625 C 9.460938 -11.710938 9.738281 -11.632812 10 -11.53125 C 10.269531 -11.425781 10.5 -11.289062 10.6875 -11.125 C 10.882812 -10.96875 10.984375 -10.757812 10.984375 -10.5 C 10.984375 -10.351562 10.863281 -10.097656 10.625 -9.734375 C 10.394531 -9.378906 10.125 -9.019531 9.8125 -8.65625 C 9.507812 -8.289062 9.207031 -7.960938 8.90625 -7.671875 C 8.613281 -7.390625 8.398438 -7.25 8.265625 -7.25 C 7.972656 -7.25 7.757812 -7.382812 7.625 -7.65625 C 7.5 -7.9375 7.4375 -8.1875 7.4375 -8.40625 C 7.4375 -8.507812 7.441406 -8.617188 7.453125 -8.734375 C 7.460938 -8.847656 7.476562 -8.957031 7.5 -9.0625 C 6.757812 -8.625 6.09375 -8.179688 5.5 -7.734375 C 4.914062 -7.285156 4.394531 -6.800781 3.9375 -6.28125 C 3.476562 -5.757812 3.0625 -5.175781 2.6875 -4.53125 C 2.320312 -3.894531 1.988281 -3.179688 1.6875 -2.390625 C 1.644531 -2.285156 1.59375 -2.171875 1.53125 -2.046875 C 1.46875 -1.921875 1.4375 -1.800781 1.4375 -1.6875 C 1.4375 -1.5625 1.488281 -1.457031 1.59375 -1.375 C 1.695312 -1.289062 1.804688 -1.25 1.921875 -1.25 C 2.429688 -1.25 3.09375 -1.382812 3.90625 -1.65625 C 4.726562 -1.9375 5.578125 -2.273438 6.453125 -2.671875 C 7.328125 -3.078125 8.179688 -3.503906 9.015625 -3.953125 C 9.859375 -4.398438 10.554688 -4.804688 11.109375 -5.171875 L 11.34375 -4.890625 C 11.125 -4.671875 10.769531 -4.394531 10.28125 -4.0625 C 9.789062 -3.738281 9.234375 -3.40625 8.609375 -3.0625 C 7.984375 -2.71875 7.328125 -2.367188 6.640625 -2.015625 C 5.960938 -1.671875 5.3125 -1.359375 4.6875 -1.078125 C 4.070312 -0.804688 3.523438 -0.582031 3.046875 -0.40625 C 2.566406 -0.238281 2.210938 -0.15625 1.984375 -0.15625 C 1.742188 -0.15625 1.515625 -0.210938 1.296875 -0.328125 C 1.085938 -0.453125 0.90625 -0.609375 0.75 -0.796875 C 0.59375 -0.992188 0.46875 -1.210938 0.375 -1.453125 C 0.289062 -1.703125 0.25 -1.941406 0.25 -2.171875 Z M 1.890625 2.9375 C 1.710938 2.789062 1.664062 2.6875 1.75 2.625 C 1.84375 2.570312 2.015625 2.535156 2.265625 2.515625 C 2.523438 2.492188 2.84375 2.472656 3.21875 2.453125 C 3.601562 2.429688 3.992188 2.378906 4.390625 2.296875 C 4.785156 2.210938 5.164062 2.085938 5.53125 1.921875 C 5.90625 1.765625 6.210938 1.53125 6.453125 1.21875 C 6.816406 0.769531 7.015625 0.226562 7.046875 -0.40625 C 7.078125 -1.050781 7.054688 -1.644531 6.984375 -2.1875 C 6.921875 -2.726562 6.875 -3.148438 6.84375 -3.453125 C 6.8125 -3.765625 6.9375 -3.816406 7.21875 -3.609375 C 7.488281 -3.390625 7.734375 -3.035156 7.953125 -2.546875 C 8.179688 -2.054688 8.335938 -1.515625 8.421875 -0.921875 C 8.515625 -0.328125 8.507812 0.269531 8.40625 0.875 C 8.3125 1.476562 8.078125 2.003906 7.703125 2.453125 C 7.335938 2.898438 6.878906 3.21875 6.328125 3.40625 C 5.773438 3.601562 5.21875 3.703125 4.65625 3.703125 C 4.101562 3.703125 3.570312 3.628906 3.0625 3.484375 C 2.550781 3.347656 2.160156 3.164062 1.890625 2.9375 Z M 1.890625 2.9375 "/></g></g></g><g fill="#ffffff" fill-opacity="1"><g transform="translate(193.2606, 178.671207)"><g><path d="M 16.578125 -6.703125 C 16.554688 -6.472656 16.351562 -6.128906 15.96875 -5.671875 C 15.582031 -5.210938 15.09375 -4.703125 14.5 -4.140625 C 13.90625 -3.578125 13.253906 -3 12.546875 -2.40625 C 11.847656 -1.820312 11.164062 -1.289062 10.5 -0.8125 C 9.84375 -0.332031 9.25 0.0546875 8.71875 0.359375 C 8.1875 0.671875 7.800781 0.828125 7.5625 0.828125 C 7.332031 0.828125 7.125 0.753906 6.9375 0.609375 C 6.757812 0.460938 6.597656 0.285156 6.453125 0.078125 C 6.304688 -0.117188 6.191406 -0.332031 6.109375 -0.5625 C 6.035156 -0.800781 6 -1.007812 6 -1.1875 C 6 -1.601562 6.066406 -2.003906 6.203125 -2.390625 C 6.347656 -2.773438 6.484375 -3.148438 6.609375 -3.515625 C 6.203125 -3.234375 5.8125 -2.890625 5.4375 -2.484375 C 5.070312 -2.085938 4.6875 -1.707031 4.28125 -1.34375 C 3.875 -0.976562 3.445312 -0.660156 3 -0.390625 C 2.550781 -0.128906 2.050781 0 1.5 0 C 1.070312 0 0.71875 -0.191406 0.4375 -0.578125 C 0.164062 -0.960938 0.03125 -1.363281 0.03125 -1.78125 C 0.03125 -2.507812 0.203125 -3.203125 0.546875 -3.859375 C 0.898438 -4.523438 1.335938 -5.148438 1.859375 -5.734375 C 2.390625 -6.316406 2.96875 -6.84375 3.59375 -7.3125 C 4.21875 -7.78125 4.804688 -8.195312 5.359375 -8.5625 C 5.492188 -8.664062 5.644531 -8.773438 5.8125 -8.890625 C 5.976562 -9.003906 6.148438 -9.0625 6.328125 -9.0625 C 6.640625 -9.0625 6.882812 -8.953125 7.0625 -8.734375 C 7.25 -8.515625 7.394531 -8.257812 7.5 -7.96875 C 7.613281 -7.675781 7.691406 -7.363281 7.734375 -7.03125 C 7.773438 -6.707031 7.804688 -6.429688 7.828125 -6.203125 C 7.910156 -6.328125 8.0625 -6.578125 8.28125 -6.953125 C 8.507812 -7.335938 8.742188 -7.726562 8.984375 -8.125 C 9.234375 -8.519531 9.46875 -8.867188 9.6875 -9.171875 C 9.914062 -9.484375 10.082031 -9.640625 10.1875 -9.640625 C 10.4375 -9.640625 10.660156 -9.519531 10.859375 -9.28125 C 11.066406 -9.050781 11.171875 -8.820312 11.171875 -8.59375 C 11.171875 -8.445312 11.082031 -8.171875 10.90625 -7.765625 C 10.726562 -7.359375 10.507812 -6.890625 10.25 -6.359375 C 10 -5.828125 9.722656 -5.257812 9.421875 -4.65625 C 9.117188 -4.0625 8.835938 -3.492188 8.578125 -2.953125 C 8.328125 -2.410156 8.113281 -1.921875 7.9375 -1.484375 C 7.757812 -1.046875 7.671875 -0.722656 7.671875 -0.515625 L 7.671875 -0.34375 C 8.003906 -0.34375 8.414062 -0.492188 8.90625 -0.796875 C 9.394531 -1.097656 9.921875 -1.476562 10.484375 -1.9375 C 11.054688 -2.394531 11.644531 -2.890625 12.25 -3.421875 C 12.851562 -3.953125 13.425781 -4.460938 13.96875 -4.953125 C 14.507812 -5.441406 15.003906 -5.867188 15.453125 -6.234375 C 15.898438 -6.609375 16.242188 -6.851562 16.484375 -6.96875 Z M 1.65625 -0.890625 C 1.976562 -0.890625 2.410156 -1.046875 2.953125 -1.359375 C 3.492188 -1.671875 4.03125 -2.050781 4.5625 -2.5 C 5.09375 -2.957031 5.550781 -3.425781 5.9375 -3.90625 C 6.320312 -4.382812 6.515625 -4.785156 6.515625 -5.109375 C 6.515625 -5.410156 6.53125 -5.710938 6.5625 -6.015625 C 6.59375 -6.328125 6.609375 -6.632812 6.609375 -6.9375 L 6.578125 -7.125 C 6.515625 -7.101562 6.390625 -7.023438 6.203125 -6.890625 C 6.023438 -6.765625 5.828125 -6.613281 5.609375 -6.4375 C 5.398438 -6.269531 5.203125 -6.101562 5.015625 -5.9375 C 4.828125 -5.769531 4.695312 -5.65625 4.625 -5.59375 C 3.945312 -5.019531 3.289062 -4.34375 2.65625 -3.5625 C 2.03125 -2.78125 1.601562 -1.953125 1.375 -1.078125 C 1.394531 -0.953125 1.488281 -0.890625 1.65625 -0.890625 Z M 8.875 -12.296875 C 8.40625 -12.191406 8.003906 -12.25 7.671875 -12.46875 C 7.347656 -12.695312 7.046875 -12.960938 6.765625 -13.265625 C 6.484375 -13.578125 6.191406 -13.875 5.890625 -14.15625 C 5.597656 -14.445312 5.25 -14.601562 4.84375 -14.625 C 4.351562 -14.625 3.882812 -14.460938 3.4375 -14.140625 C 2.988281 -13.828125 2.59375 -13.503906 2.25 -13.171875 C 1.914062 -12.847656 1.65625 -12.59375 1.46875 -12.40625 C 1.289062 -12.226562 1.203125 -12.289062 1.203125 -12.59375 C 1.203125 -12.90625 1.300781 -13.265625 1.5 -13.671875 C 1.707031 -14.078125 1.988281 -14.457031 2.34375 -14.8125 C 2.695312 -15.175781 3.101562 -15.476562 3.5625 -15.71875 C 4.019531 -15.96875 4.492188 -16.09375 4.984375 -16.09375 C 5.515625 -16.09375 5.9375 -15.96875 6.25 -15.71875 C 6.570312 -15.476562 6.863281 -15.210938 7.125 -14.921875 C 7.394531 -14.640625 7.664062 -14.375 7.9375 -14.125 C 8.21875 -13.882812 8.570312 -13.765625 9 -13.765625 C 9.507812 -13.765625 9.984375 -13.929688 10.421875 -14.265625 C 10.859375 -14.597656 11.238281 -14.929688 11.5625 -15.265625 C 11.894531 -15.609375 12.148438 -15.867188 12.328125 -16.046875 C 12.515625 -16.234375 12.609375 -16.175781 12.609375 -15.875 C 12.609375 -15.570312 12.503906 -15.210938 12.296875 -14.796875 C 12.097656 -14.390625 11.828125 -14 11.484375 -13.625 C 11.148438 -13.25 10.753906 -12.929688 10.296875 -12.671875 C 9.835938 -12.421875 9.363281 -12.296875 8.875 -12.296875 Z M 8.875 -12.296875 "/></g></g></g><g fill="#ffffff" fill-opacity="1"><g transform="translate(205.74122, 178.671207)"><g><path d="M 9.328125 -5.6875 C 9.148438 -5.6875 8.96875 -5.703125 8.78125 -5.734375 C 8.59375 -5.765625 8.410156 -5.800781 8.234375 -5.84375 C 7.898438 -5.375 7.515625 -4.8125 7.078125 -4.15625 C 6.640625 -3.507812 6.160156 -2.878906 5.640625 -2.265625 C 5.117188 -1.648438 4.554688 -1.128906 3.953125 -0.703125 C 3.359375 -0.273438 2.734375 -0.0625 2.078125 -0.0625 C 1.523438 -0.0625 1.054688 -0.273438 0.671875 -0.703125 C 0.285156 -1.128906 0.09375 -1.609375 0.09375 -2.140625 C 0.09375 -2.460938 0.191406 -2.863281 0.390625 -3.34375 C 0.597656 -3.820312 0.863281 -4.328125 1.1875 -4.859375 C 1.519531 -5.390625 1.894531 -5.921875 2.3125 -6.453125 C 2.726562 -6.984375 3.148438 -7.457031 3.578125 -7.875 C 4.003906 -8.289062 4.421875 -8.625 4.828125 -8.875 C 5.242188 -9.132812 5.613281 -9.265625 5.9375 -9.265625 C 6.21875 -9.265625 6.503906 -9.125 6.796875 -8.84375 C 7.097656 -8.570312 7.25 -8.296875 7.25 -8.015625 C 7.25 -7.785156 7.148438 -7.609375 6.953125 -7.484375 C 6.765625 -7.367188 6.585938 -7.257812 6.421875 -7.15625 C 5.359375 -6.445312 4.390625 -5.628906 3.515625 -4.703125 C 2.640625 -3.785156 1.957031 -2.726562 1.46875 -1.53125 L 1.71875 -1.375 C 2.144531 -1.4375 2.625 -1.648438 3.15625 -2.015625 C 3.6875 -2.378906 4.207031 -2.804688 4.71875 -3.296875 C 5.238281 -3.785156 5.710938 -4.289062 6.140625 -4.8125 C 6.578125 -5.332031 6.914062 -5.769531 7.15625 -6.125 C 7.28125 -6.300781 7.363281 -6.53125 7.40625 -6.8125 C 7.445312 -7.101562 7.492188 -7.382812 7.546875 -7.65625 C 7.609375 -7.9375 7.703125 -8.175781 7.828125 -8.375 C 7.953125 -8.582031 8.144531 -8.6875 8.40625 -8.6875 C 8.570312 -8.6875 8.703125 -8.597656 8.796875 -8.421875 C 8.890625 -8.253906 8.9375 -8.097656 8.9375 -7.953125 C 8.9375 -7.742188 8.890625 -7.535156 8.796875 -7.328125 C 8.703125 -7.128906 8.632812 -6.929688 8.59375 -6.734375 C 8.695312 -6.691406 8.804688 -6.660156 8.921875 -6.640625 C 9.035156 -6.617188 9.140625 -6.609375 9.234375 -6.609375 C 9.566406 -6.609375 9.890625 -6.660156 10.203125 -6.765625 C 10.515625 -6.878906 10.828125 -7.019531 11.140625 -7.1875 C 11.460938 -7.351562 11.765625 -7.523438 12.046875 -7.703125 C 12.335938 -7.890625 12.613281 -8.066406 12.875 -8.234375 L 13 -7.953125 C 12.957031 -7.765625 12.785156 -7.539062 12.484375 -7.28125 C 12.191406 -7.019531 11.847656 -6.769531 11.453125 -6.53125 C 11.054688 -6.300781 10.660156 -6.101562 10.265625 -5.9375 C 9.867188 -5.769531 9.554688 -5.6875 9.328125 -5.6875 Z M 9.328125 -5.6875 "/></g></g></g></svg>